<svg version="1.2" baseProfile="tiny-ps" xmlns="http://www.w3.org/2000/svg" viewBox="0 0 35 35" width="35" height="35">
	<title>item_1</title>
	<style>
		tspan { white-space:pre }
		.s0 { fill: #83f3c6;stroke: #83f3c6;stroke-width: 1.8 } 
	</style>
	<g id="item_1">
		<g id=":hover">
			<g id="likes">
				<g id="liked">
					<path id="Ellipse 5 copy 5" fill-rule="evenodd" class="s0" d="m17.5 0.01c9.66 0 17.49 7.83 17.49 17.49c0 9.66-7.83 17.49-17.49 17.49c-9.66 0-17.49-7.83-17.49-17.49c0-9.66 7.83-17.49 17.49-17.49zm4.01 12.08c-0.68-1.16-1.63-1.67-1.67-3c-0.04-1.1-0.03-1.51-0.01-1.61c-0.22-0.6-1.33-1.06-1.94-1.06c-0.69 0-1.52 0.57-1.52 1.28c0 0.01-0.04 0.02-0.04 0.03l-0.01 4.3h-6.27c-0.01 0-0.02 0.08-0.02 0.08c-0.68 0-1.02 0.72-1.02 1.42c0 0.7 0.34 1.25 1.02 1.25c0.01 0 0.01 0 0.02 0h2.11v0.94l-2.16-0.06v0.06c-0.67 0.02-0.99 0.67-0.99 1.36c0 0.69 0.31 1.3 0.98 1.33v0h0.02c0.01 0 0.01 0 0.02 0c0.01 0 0.01 0 0.02 0h2.11v0.69h-2.06v0c-0.02 0-0.04 0-0.06 0c-0.68 0-1.02 0.72-1.02 1.42c0 0.7 0.34 1.37 1.02 1.37c0.02 0 0.04 0 0.06 0v0h2.06v0.66h-2.07c-0.02 0-0.04 0.17-0.06 0.17c-0.68 0-1.02 0.61-1.02 1.32c0 0.69 0.31 1.32 0.98 1.34l0 0h12.75c0 0 0.74-2.14 1.66-2.14c0.92 0 1.77 0 1.77 0v-8.46c0 0-3.29-0.36-4.64-2.68zm-1.69-4.61c0.03 0.07 0.04 0.14 0.04 0.22c0-0.14-0.02-0.31-0.04-0.22z" />
				</g>
			</g>
		</g>
	</g>
</svg>