<svg version="1.2" baseProfile="tiny-ps" xmlns="http://www.w3.org/2000/svg" viewBox="0 0 35 36" width="35" height="36">
	<title>item_1</title>
	<style>
		tspan { white-space:pre }
		.s0 { fill: #ffffff;stroke: #ffffff;stroke-width: 1.8 } 
	</style>
	<g id="item_1">
		<g id=":hover">
			<g id="repost">
				<g id="default">
					<path id="Ellipse 5 copy 4 copia 2" fill-rule="evenodd" class="s0" d="m17.38 0.55c9.66 0 17.5 7.83 17.5 17.49c0 9.66-7.83 17.49-17.5 17.49c-9.66 0-17.5-7.83-17.5-17.49c0-9.66 7.83-17.49 17.5-17.49zm10.69 17.39c0-5.79-4.7-10.49-10.49-10.49c-5.79 0-10.49 4.69-10.49 10.49h-2.1l3.5 4.19l3.5-4.19h-2.1c0-4.25 3.44-7.69 7.69-7.69c4.25 0 7.69 3.44 7.69 7.69c0 4.25-3.44 7.69-7.69 7.69v2.8c5.79 0 10.49-4.7 10.49-10.49z" />
				</g>
			</g>
		</g>
	</g>
</svg>